<?xml version="1.0" encoding="UTF-8"?>
<svg id="Layer_1" data-name="Layer 1" xmlns="http://www.w3.org/2000/svg" viewBox="0 0 24 25">
  <path d="M20.95,10.71c2.18,0,3.61,2.28,2.83,4.33l-3.05,7.98c-.46,1.19-1.57,1.99-2.83,1.99H6.09c-1.26,0-2.37-.8-2.83-1.99L.22,15.03c-.78-2.04.65-4.33,2.83-4.33h17.91ZM3.04,11.71c-1.41,0-2.45,1.52-1.89,2.97l3.05,7.98c.32.83,1.07,1.35,1.89,1.35h11.81c.82,0,1.58-.52,1.89-1.35l3.05-7.98c.55-1.45-.48-2.97-1.89-2.97H3.04ZM9.76,1.02c1.21-1.37,3.28-1.37,4.49,0l5.76,6.53c.18.21.16.52-.04.71-.21.18-.52.16-.71-.04L13.49,1.69c-.81-.92-2.18-.92-2.99,0l-5.76,6.53c-.18.21-.5.23-.71.04-.21-.18-.23-.5-.04-.71L9.76,1.02Z" style="fill: #17353c;"/>
</svg>